<svg width="16" height="16" viewBox="0 0 16 16" fill="none" xmlns="http://www.w3.org/2000/svg">
<path d="M12 12.1882C10.92 12.1882 10.24 12.5408 9.64 12.8597C9.12 13.1367 8.696 13.3633 8 13.3633C7.28 13.3633 6.88 13.1535 6.36 12.8597C5.76 12.5408 5.104 12.1882 4 12.1882C2.896 12.1882 2.24 12.5408 1.64 12.8597C1.296 13.0444 0.992 13.2038 0.624 13.2962C0.264 13.3801 0 13.6823 0 14.06V14.1439C0 14.6475 0.448 15.0084 0.912 14.9077C1.504 14.7818 1.952 14.5468 2.36 14.3285C2.88 14.0516 3.296 13.8249 4 13.8249C4.704 13.8249 5.12 14.0348 5.64 14.3285C6.24 14.6475 6.896 15 8 15C9.104 15 9.76 14.6475 10.36 14.3285C10.88 14.0516 11.304 13.8249 12 13.8249C12.72 13.8249 13.12 14.0348 13.64 14.3285C14.056 14.5468 14.504 14.7902 15.104 14.9161C15.568 15.0084 16 14.6391 16 14.1523V14.0767C16 13.6906 15.728 13.3885 15.368 13.3046C15 13.2206 14.704 13.0612 14.36 12.8681C13.76 12.5408 13.08 12.1882 12 12.1882ZM12 8.45324C10.92 8.45324 10.24 8.81415 9.64 9.1247C9.12 9.39329 8.696 9.6283 8 9.6283C7.28 9.6283 6.88 9.41847 6.36 9.1247C5.76 8.80576 5.104 8.45324 4 8.45324C2.896 8.45324 2.24 8.81415 1.64 9.1247C1.296 9.30096 0.992 9.46882 0.616 9.56115C0.264 9.64508 0 9.94724 0 10.3249V10.4089C0 10.9041 0.432 11.2734 0.896 11.1727C1.496 11.0468 1.944 10.8034 2.36 10.5935C2.88 10.2998 3.28 10.0899 4 10.0899C4.72 10.0899 5.12 10.2998 5.64 10.5935C6.24 10.9125 6.896 11.265 8 11.265C9.104 11.265 9.76 10.9041 10.36 10.5935C10.88 10.2998 11.28 10.0899 12 10.0899C12.72 10.0899 13.12 10.2998 13.64 10.5935C14.056 10.8118 14.504 11.0552 15.104 11.1811C15.568 11.2734 16 10.9041 16 10.4089V10.3333C16 9.94724 15.728 9.64508 15.368 9.56115C15 9.47722 14.704 9.31775 14.36 9.1247C13.76 8.80576 13.08 8.45324 12 8.45324ZM14.36 1.67146C13.76 1.35252 13.096 1 12 1C10.904 1 10.24 1.35252 9.64 1.67146C9.12 1.94005 8.696 2.17506 8 2.17506C7.28 2.17506 6.88 1.96523 6.36 1.67146C5.76 1.36091 5.104 1 4 1C2.896 1 2.24 1.35252 1.64 1.67146C1.296 1.85612 0.992 2.01559 0.624 2.10791C0.264 2.19185 0 2.494 0 2.8717V2.93046C0 3.43405 0.432 3.80336 0.896 3.70264C1.496 3.57674 1.944 3.33333 2.36 3.1235C2.88 2.84652 3.296 2.6199 4 2.6199C4.704 2.6199 5.12 2.82974 5.64 3.1235C6.24 3.44245 6.896 3.79496 8 3.79496C9.104 3.79496 9.76 3.43405 10.36 3.1235C10.88 2.85492 11.304 2.6199 12 2.6199C12.72 2.6199 13.12 2.82974 13.64 3.1235C14.056 3.34173 14.504 3.58513 15.104 3.71103C15.568 3.80336 16 3.43405 16 2.93885V2.86331C16 2.47722 15.728 2.17506 15.368 2.09113C15 2.00719 14.704 1.85612 14.36 1.67146ZM12 4.71823C10.92 4.71823 10.24 5.07914 9.64 5.38969C9.12 5.68345 8.72 5.89329 8 5.89329C7.28 5.89329 6.88 5.68345 6.36 5.38969C5.76 5.07074 5.104 4.71823 4 4.71823C2.896 4.71823 2.24 5.07914 1.64 5.38969C1.296 5.58273 1 5.74221 0.632 5.82614C0.272 5.91007 0 6.21223 0 6.59832V6.67386C0 7.16906 0.432 7.53837 0.896 7.43765C1.496 7.31175 1.944 7.06835 2.36 6.85851C2.88 6.58993 3.304 6.35492 4 6.35492C4.696 6.35492 5.12 6.56475 5.64 6.85851C6.24 7.17746 6.896 7.52998 8 7.52998C9.104 7.52998 9.76 7.16906 10.36 6.85851C10.88 6.58993 11.304 6.35492 12 6.35492C12.72 6.35492 13.12 6.56475 13.64 6.85851C14.056 7.07674 14.504 7.32014 15.104 7.44604C15.568 7.53837 16 7.16906 16 6.68225V6.60671C16 6.22062 15.728 5.91847 15.368 5.83453C15 5.7506 14.704 5.59113 14.36 5.39808C13.76 5.07074 13.08 4.71823 12 4.71823Z" fill="white"/>
</svg>
