<svg width="12" height="12" viewBox="0 0 12 12" fill="none" xmlns="http://www.w3.org/2000/svg">
<rect width="12" height="12" fill="#301D1A"/>
<path d="M8 8.09412C7.46 8.09412 7.12 8.27038 6.82 8.42986C6.56 8.56835 6.348 8.68165 6 8.68165C5.64 8.68165 5.44 8.57674 5.18 8.42986C4.88 8.27038 4.552 8.09412 4 8.09412C3.448 8.09412 3.12 8.27038 2.82 8.42986C2.648 8.52218 2.496 8.60192 2.312 8.64808C2.132 8.69005 2 8.84113 2 9.02998V9.07194C2 9.32374 2.224 9.5042 2.456 9.45384C2.752 9.39089 2.976 9.27338 3.18 9.16427C3.44 9.02578 3.648 8.91247 4 8.91247C4.352 8.91247 4.56 9.01739 4.82 9.16427C5.12 9.32374 5.448 9.5 6 9.5C6.552 9.5 6.88 9.32374 7.18 9.16427C7.44 9.02578 7.652 8.91247 8 8.91247C8.36 8.91247 8.56 9.01739 8.82 9.16427C9.028 9.27338 9.252 9.39508 9.552 9.45803C9.784 9.5042 10 9.31954 10 9.07614V9.03837C10 8.84532 9.864 8.69424 9.684 8.65228C9.5 8.61031 9.352 8.53058 9.18 8.43405C8.88 8.27038 8.54 8.09412 8 8.09412V8.09412ZM8 6.22662C7.46 6.22662 7.12 6.40707 6.82 6.56235C6.56 6.69664 6.348 6.81415 6 6.81415C5.64 6.81415 5.44 6.70923 5.18 6.56235C4.88 6.40288 4.552 6.22662 4 6.22662C3.448 6.22662 3.12 6.40707 2.82 6.56235C2.648 6.65048 2.496 6.73441 2.308 6.78058C2.132 6.82254 2 6.97362 2 7.16247V7.20444C2 7.45204 2.216 7.63669 2.448 7.58633C2.748 7.52338 2.972 7.40168 3.18 7.29676C3.44 7.14988 3.64 7.04496 4 7.04496C4.36 7.04496 4.56 7.14988 4.82 7.29676C5.12 7.45624 5.448 7.63249 6 7.63249C6.552 7.63249 6.88 7.45204 7.18 7.29676C7.44 7.14988 7.64 7.04496 8 7.04496C8.36 7.04496 8.56 7.14988 8.82 7.29676C9.028 7.40588 9.252 7.52758 9.552 7.59053C9.784 7.63669 10 7.45204 10 7.20444V7.16667C10 6.97362 9.864 6.82254 9.684 6.78058C9.5 6.73861 9.352 6.65887 9.18 6.56235C8.88 6.40288 8.54 6.22662 8 6.22662V6.22662ZM9.18 2.83573C8.88 2.67626 8.548 2.5 8 2.5C7.452 2.5 7.12 2.67626 6.82 2.83573C6.56 2.97002 6.348 3.08753 6 3.08753C5.64 3.08753 5.44 2.98261 5.18 2.83573C4.88 2.68046 4.552 2.5 4 2.5C3.448 2.5 3.12 2.67626 2.82 2.83573C2.648 2.92806 2.496 3.00779 2.312 3.05396C2.132 3.09592 2 3.247 2 3.43585V3.46523C2 3.71703 2.216 3.90168 2.448 3.85132C2.748 3.78837 2.972 3.66667 3.18 3.56175C3.44 3.42326 3.648 3.30995 4 3.30995C4.352 3.30995 4.56 3.41487 4.82 3.56175C5.12 3.72122 5.448 3.89748 6 3.89748C6.552 3.89748 6.88 3.71703 7.18 3.56175C7.44 3.42746 7.652 3.30995 8 3.30995C8.36 3.30995 8.56 3.41487 8.82 3.56175C9.028 3.67086 9.252 3.79257 9.552 3.85552C9.784 3.90168 10 3.71703 10 3.46942V3.43165C10 3.23861 9.864 3.08753 9.684 3.04556C9.5 3.0036 9.352 2.92806 9.18 2.83573V2.83573ZM8 4.35911C7.46 4.35911 7.12 4.53957 6.82 4.69484C6.56 4.84173 6.36 4.94664 6 4.94664C5.64 4.94664 5.44 4.84173 5.18 4.69484C4.88 4.53537 4.552 4.35911 4 4.35911C3.448 4.35911 3.12 4.53957 2.82 4.69484C2.648 4.79137 2.5 4.8711 2.316 4.91307C2.136 4.95504 2 5.10612 2 5.29916V5.33693C2 5.58453 2.216 5.76918 2.448 5.71882C2.748 5.65588 2.972 5.53417 3.18 5.42926C3.44 5.29496 3.652 5.17746 4 5.17746C4.348 5.17746 4.56 5.28237 4.82 5.42926C5.12 5.58873 5.448 5.76499 6 5.76499C6.552 5.76499 6.88 5.58453 7.18 5.42926C7.44 5.29496 7.652 5.17746 8 5.17746C8.36 5.17746 8.56 5.28237 8.82 5.42926C9.028 5.53837 9.252 5.66007 9.552 5.72302C9.784 5.76918 10 5.58453 10 5.34113V5.30336C10 5.11031 9.864 4.95923 9.684 4.91727C9.5 4.8753 9.352 4.79556 9.18 4.69904C8.88 4.53537 8.54 4.35911 8 4.35911V4.35911Z" fill="white"/>
</svg>
