<svg width="20" height="20" viewBox="0 0 20 20" fill="none" xmlns="http://www.w3.org/2000/svg">
<path d="M6.75258 5.3415C6.38889 4.92586 5.75713 4.88374 5.3415 5.24742C4.92586 5.61111 4.88374 6.24287 5.24742 6.6585L6.75258 5.3415ZM9.5 10L10.2526 10.6585C10.5825 10.2815 10.5825 9.71852 10.2526 9.3415L9.5 10ZM5.24742 13.3415C4.88374 13.7571 4.92586 14.3889 5.3415 14.7526C5.75713 15.1163 6.38889 15.0741 6.75258 14.6585L5.24742 13.3415ZM5.24742 6.6585L8.74742 10.6585L10.2526 9.3415L6.75258 5.3415L5.24742 6.6585ZM8.74742 9.3415L5.24742 13.3415L6.75258 14.6585L10.2526 10.6585L8.74742 9.3415Z" fill="#453532"/>
<path d="M11.7526 5.3415C11.3889 4.92586 10.7571 4.88374 10.3415 5.24742C9.92586 5.61111 9.88374 6.24287 10.2474 6.6585L11.7526 5.3415ZM14.5 10L15.2526 10.6585C15.5825 10.2815 15.5825 9.71852 15.2526 9.3415L14.5 10ZM10.2474 13.3415C9.88374 13.7571 9.92586 14.3889 10.3415 14.7526C10.7571 15.1163 11.3889 15.0741 11.7526 14.6585L10.2474 13.3415ZM10.2474 6.6585L13.7474 10.6585L15.2526 9.3415L11.7526 5.3415L10.2474 6.6585ZM13.7474 9.3415L10.2474 13.3415L11.7526 14.6585L15.2526 10.6585L13.7474 9.3415Z" fill="#453532"/>
</svg>
