<svg width="20" height="20" viewBox="0 0 20 20" fill="none" xmlns="http://www.w3.org/2000/svg">
<rect x="3.20711" y="7.5" width="6" height="6" rx="0.5" transform="rotate(-45 3.20711 7.5)" stroke="#453532"/>
<rect x="9.5" y="9.94971" width="6" height="6" rx="0.5" stroke="#453532"/>
<circle cx="7.5" cy="5.5" r="0.5" fill="#453532"/>
<circle cx="7.5" cy="7.5" r="0.5" fill="#453532"/>
<circle cx="7.5" cy="9.5" r="0.5" fill="#453532"/>
<path d="M11.5 11.5C11.5 11.7761 11.2761 12 11 12C10.7239 12 10.5 11.7761 10.5 11.5C10.5 11.2239 10.7239 11 11 11C11.2761 11 11.5 11.2239 11.5 11.5Z" fill="#453532"/>
<path d="M14.5 11.5C14.5 11.7761 14.2761 12 14 12C13.7239 12 13.5 11.7761 13.5 11.5C13.5 11.2239 13.7239 11 14 11C14.2761 11 14.5 11.2239 14.5 11.5Z" fill="#453532"/>
<path d="M14.5 14.5C14.5 14.7761 14.2761 15 14 15C13.7239 15 13.5 14.7761 13.5 14.5C13.5 14.2239 13.7239 14 14 14C14.2761 14 14.5 14.2239 14.5 14.5Z" fill="#453532"/>
<path d="M13 13C13 13.2761 12.7761 13.5 12.5 13.5C12.2239 13.5 12 13.2761 12 13C12 12.7239 12.2239 12.5 12.5 12.5C12.7761 12.5 13 12.7239 13 13Z" fill="#453532"/>
<path d="M11.5 14.5C11.5 14.7761 11.2761 15 11 15C10.7239 15 10.5 14.7761 10.5 14.5C10.5 14.2239 10.7239 14 11 14C11.2761 14 11.5 14.2239 11.5 14.5Z" fill="#453532"/>
</svg>
