<svg width="20" height="20" viewBox="0 0 20 20" fill="none" xmlns="http://www.w3.org/2000/svg">
<path d="M10 6C10.44 6 10.8 6.36 10.8 6.8V10C10.8 10.44 10.44 10.8 10 10.8C9.56 10.8 9.2 10.44 9.2 10V6.8C9.2 6.36 9.56 6 10 6ZM9.992 2C5.576 2 2 5.584 2 10C2 14.416 5.576 18 9.992 18C14.416 18 18 14.416 18 10C18 5.584 14.416 2 9.992 2ZM10 16.4C6.464 16.4 3.6 13.536 3.6 10C3.6 6.464 6.464 3.6 10 3.6C13.536 3.6 16.4 6.464 16.4 10C16.4 13.536 13.536 16.4 10 16.4ZM10.8 14H9.2V12.4H10.8V14Z" fill="#453532"/>
</svg>
