<svg width="20" height="20" viewBox="0 0 20 20" fill="none" xmlns="http://www.w3.org/2000/svg">
<path d="M8.94617 15.7482L12.1646 12.6043C12.38 12.3943 12.5022 12.1049 12.5022 11.8041V6.13497C12.5022 5.51074 11.9784 5 11.3382 5H6.10602C5.64042 5 5.22138 5.27239 5.04096 5.68666L3.14365 10.0052C2.64895 11.1288 3.49284 12.3773 4.74414 12.3773H8.03244L7.47954 14.9764C7.42134 15.2601 7.50864 15.5496 7.71816 15.7538C8.06154 16.083 8.60862 16.083 8.94617 15.7482V15.7482ZM14.836 5C14.1958 5 13.672 5.51074 13.672 6.13497V10.6749C13.672 11.2991 14.1958 11.8098 14.836 11.8098C15.4762 11.8098 16 11.2991 16 10.6749V6.13497C16 5.51074 15.4762 5 14.836 5Z" fill="#453532"/>
</svg>
