<svg width="20" height="20" viewBox="0 0 20 20" fill="none" xmlns="http://www.w3.org/2000/svg">
<path d="M10 2C9.44775 2 9 2.3266 9 2.72949V5.27051C9 5.6734 9.44771 6 10 6C10.5523 6 11 5.67343 11 5.27051V2.72949C11 2.32663 10.5523 2 10 2Z" fill="#453532"/>
<path d="M7.7375 6.46997L5.53001 4.2625C5.18001 3.9125 4.61254 3.9125 4.2625 4.2625C3.9125 4.6125 3.9125 5.17996 4.2625 5.52996L6.47002 7.73747C6.82003 8.08751 7.3875 8.08751 7.7375 7.73747C8.0875 7.38743 8.0875 6.81997 7.7375 6.46997Z" fill="#453532"/>
<path d="M5.27051 9H2.72949C2.32659 9 2 9.44771 2 10C2 10.5523 2.32659 11 2.72949 11H5.27051C5.67341 11 6 10.5523 6 10C5.99997 9.44771 5.67337 9 5.27051 9Z" fill="#453532"/>
<path d="M7.7375 12.2625C7.3875 11.9125 6.82003 11.9125 6.47002 12.2625L4.2625 14.47C3.9125 14.82 3.9125 15.3875 4.2625 15.7375C4.61254 16.0875 5.18001 16.0875 5.53001 15.7375L7.7375 13.53C8.0875 13.18 8.0875 12.6126 7.7375 12.2625Z" fill="#453532"/>
<path d="M10 14C9.44775 14 9 14.3266 9 14.7295V17.2705C9 17.6734 9.44771 18 10 18C10.5523 18 11 17.6734 11 17.2705V14.7295C11 14.3266 10.5523 14 10 14Z" fill="#453532"/>
<path d="M15.7375 14.47L13.53 12.2625C13.18 11.9125 12.6125 11.9125 12.2625 12.2625C11.9125 12.6126 11.9125 13.18 12.2625 13.53L14.47 15.7375C14.82 16.0875 15.3875 16.0875 15.7375 15.7375C16.0875 15.3875 16.0875 14.82 15.7375 14.47Z" fill="#453532"/>
<path d="M17.2705 9H14.7295C14.3266 9 14 9.44766 14 10C14 10.5523 14.3266 11 14.7295 11H17.2705C17.6734 11 18 10.5523 18 10C18 9.44771 17.6734 9 17.2705 9Z" fill="#453532"/>
<path d="M15.7375 4.2625C15.3875 3.9125 14.82 3.9125 14.47 4.2625L12.2625 6.46997C11.9125 6.81997 11.9125 7.38743 12.2625 7.73747C12.6125 8.08751 13.18 8.08751 13.53 7.73747L15.7375 5.52996C16.0875 5.17996 16.0875 4.6125 15.7375 4.2625Z" fill="#453532"/>
</svg>
