<svg width="20" height="20" viewBox="0 0 20 20" fill="none" xmlns="http://www.w3.org/2000/svg">
<path d="M8 3L16.5048 16.2296C16.7187 16.5624 16.4798 17 16.0842 17H3.91583C3.52025 17 3.28133 16.5624 3.49524 16.2296L12 3" stroke="#453532"/>
<path d="M8 17L9.04422 13.6063C9.33383 12.6651 10.6662 12.6651 10.9558 13.6063L12 17" stroke="#453532"/>
<rect x="9" y="11" width="2" height="1" rx="0.5" fill="#453532"/>
<path d="M9 10C9 9.72386 9.22386 9.5 9.5 9.5H10.5C10.7761 9.5 11 9.72386 11 10V10C11 10.2761 10.7761 10.5 10.5 10.5H9.5C9.22386 10.5 9 10.2761 9 10V10Z" fill="#453532"/>
</svg>
