<svg width="20" height="20" viewBox="0 0 20 20" fill="none" xmlns="http://www.w3.org/2000/svg">
<rect x="8.5" y="3.5" width="3" height="3" rx="0.5" stroke="#453532"/>
<rect x="8.5" y="12.5" width="3" height="3" rx="0.5" stroke="#453532"/>
<rect x="13.5" y="12.5" width="3" height="3" rx="0.5" stroke="#453532"/>
<rect x="3.5" y="12.5" width="3" height="3" rx="0.5" stroke="#453532"/>
<rect x="5" y="9" width="10" height="1" fill="#453532"/>
<path d="M9.5 13L9.5 6L10.5 6L10.5 13L9.5 13Z" fill="#453532"/>
<path d="M5 13C4.72386 13 4.5 12.7761 4.5 12.5L4.5 9.5C4.5 9.22386 4.72386 9 5 9V9C5.27614 9 5.5 9.22386 5.5 9.5L5.5 12.5C5.5 12.7761 5.27614 13 5 13V13Z" fill="#453532"/>
<path d="M15 13C14.7239 13 14.5 12.7761 14.5 12.5L14.5 9.5C14.5 9.22386 14.7239 9 15 9V9C15.2761 9 15.5 9.22386 15.5 9.5L15.5 12.5C15.5 12.7761 15.2761 13 15 13V13Z" fill="#453532"/>
</svg>
