<svg width="20" height="20" viewBox="0 0 20 20" fill="none" xmlns="http://www.w3.org/2000/svg">
<path d="M11.0522 4.25183L7.82867 7.3957C7.61338 7.60566 7.49119 7.89508 7.49119 8.19585V13.865C7.49119 14.4893 8.01486 15 8.65491 15H13.8917C14.3572 15 14.7761 14.7276 14.9623 14.3133L16.8592 9.99478C17.348 8.87116 16.5043 7.62269 15.2533 7.62269H11.9657L12.5185 5.02361C12.5767 4.73986 12.4894 4.45045 12.2799 4.24615C11.9366 3.91701 11.3897 3.91701 11.0522 4.25183V4.25183ZM5.16373 15C5.80378 15 6.32746 14.4893 6.32746 13.865V9.32515C6.32746 8.70091 5.80378 8.19017 5.16373 8.19017C4.52368 8.19017 4 8.70091 4 9.32515V13.865C4 14.4893 4.52368 15 5.16373 15Z" fill="#453532"/>
</svg>
