<svg width="20" height="20" viewBox="0 0 20 20" fill="none" xmlns="http://www.w3.org/2000/svg">
<path d="M6.06066 9.93934C5.47487 9.35355 4.52513 9.35355 3.93934 9.93934C3.35355 10.5251 3.35355 11.4749 3.93934 12.0607L6.06066 9.93934ZM8 14L6.93934 15.0607C7.52513 15.6464 8.47487 15.6464 9.06066 15.0607L8 14ZM17.0607 7.06066C17.6464 6.47487 17.6464 5.52513 17.0607 4.93934C16.4749 4.35355 15.5251 4.35355 14.9393 4.93934L17.0607 7.06066ZM3.93934 12.0607L6.93934 15.0607L9.06066 12.9393L6.06066 9.93934L3.93934 12.0607ZM9.06066 15.0607L17.0607 7.06066L14.9393 4.93934L6.93934 12.9393L9.06066 15.0607Z" fill="#453532"/>
</svg>
