<svg width="20" height="20" viewBox="0 0 20 20" fill="#FFFFFF" xmlns="http://www.w3.org/2000/svg">
<path d="M7.5 10C7.5 10.8284 6.82843 11.5 6 11.5C5.17157 11.5 4.5 10.8284 4.5 10C4.5 9.17157 5.17157 8.5 6 8.5C6.82843 8.5 7.5 9.17157 7.5 10Z" fill="#FFFFFF"/>
<path d="M11.5 10C11.5 10.8284 10.8284 11.5 10 11.5C9.17157 11.5 8.5 10.8284 8.5 10C8.5 9.17157 9.17157 8.5 10 8.5C10.8284 8.5 11.5 9.17157 11.5 10Z" fill="#FFFFFF"/>
<path d="M15.5 10C15.5 10.8284 14.8284 11.5 14 11.5C13.1716 11.5 12.5 10.8284 12.5 10C12.5 9.17157 13.1716 8.5 14 8.5C14.8284 8.5 15.5 9.17157 15.5 10Z" fill="#FFFFFF"/>
</svg>
