<svg width="20" height="20" viewBox="0 0 20 20" fill="none" xmlns="http://www.w3.org/2000/svg">
<path d="M13.7474 14.6585C14.1111 15.0741 14.7429 15.1163 15.1585 14.7526C15.5741 14.3889 15.6163 13.7571 15.2526 13.3415L13.7474 14.6585ZM11 10L10.2474 9.3415C9.91753 9.71852 9.91753 10.2815 10.2474 10.6585L11 10ZM15.2526 6.6585C15.6163 6.24287 15.5741 5.61111 15.1585 5.24742C14.7429 4.88374 14.1111 4.92586 13.7474 5.3415L15.2526 6.6585ZM15.2526 13.3415L11.7526 9.3415L10.2474 10.6585L13.7474 14.6585L15.2526 13.3415ZM11.7526 10.6585L15.2526 6.6585L13.7474 5.3415L10.2474 9.3415L11.7526 10.6585Z" fill="#453532"/>
<path d="M8.74742 14.6585C9.11111 15.0741 9.74287 15.1163 10.1585 14.7526C10.5741 14.3889 10.6163 13.7571 10.2526 13.3415L8.74742 14.6585ZM6 10L5.24742 9.3415C4.91753 9.71852 4.91753 10.2815 5.24742 10.6585L6 10ZM10.2526 6.6585C10.6163 6.24287 10.5741 5.61111 10.1585 5.24742C9.74287 4.88374 9.11111 4.92586 8.74742 5.3415L10.2526 6.6585ZM10.2526 13.3415L6.75258 9.3415L5.24742 10.6585L8.74742 14.6585L10.2526 13.3415ZM6.75258 10.6585L10.2526 6.6585L8.74742 5.3415L5.24742 9.3415L6.75258 10.6585Z" fill="#453532"/>
</svg>
