<svg width="20" height="20" viewBox="0 0 20 20" fill="none" xmlns="http://www.w3.org/2000/svg">
<path d="M8.375 2L7.5625 2.78H4.3125C3.825 2.78 3.5 3.092 3.5 3.56C3.5 4.028 3.825 4.34 4.3125 4.34H5.9375H14.0625H15.6875C16.175 4.34 16.5 4.028 16.5 3.56C16.5 3.092 16.175 2.78 15.6875 2.78H12.4375L11.625 2H8.375ZM4.3125 5.9V16.04C4.3125 16.898 5.04375 17.6 5.9375 17.6H14.0625C14.9563 17.6 15.6875 16.898 15.6875 16.04V5.9H4.3125ZM7.5625 7.46C8.05 7.46 8.375 7.772 8.375 8.24V15.26C8.375 15.728 8.05 16.04 7.5625 16.04C7.075 16.04 6.75 15.728 6.75 15.26V8.24C6.75 7.772 7.075 7.46 7.5625 7.46ZM12.4375 7.46C12.925 7.46 13.25 7.772 13.25 8.24V15.26C13.25 15.728 12.925 16.04 12.4375 16.04C11.95 16.04 11.625 15.728 11.625 15.26V8.24C11.625 7.772 11.95 7.46 12.4375 7.46Z" fill="#453532"/>
</svg>
