<svg width="20" height="20" viewBox="0 0 20 20" fill="none" xmlns="http://www.w3.org/2000/svg">
<path d="M12.3999 9.82C13.1218 9.24571 13.6278 8.30286 13.6278 7.42857C13.6278 5.49143 12.3255 4 10.6511 4H6.74418C6.33488 4 6 4.38571 6 4.85714V15.1429C6 15.6143 6.33488 16 6.74418 16H11.0455C12.586 16 13.9925 14.5514 13.9999 12.7686C14.0074 11.4571 13.3674 10.3343 12.3999 9.82V9.82ZM8.23254 6.14286H10.4651C11.0827 6.14286 11.5814 6.71714 11.5814 7.42857C11.5814 8.14 11.0827 8.71429 10.4651 8.71429H8.23254V6.14286ZM10.8372 13.8571H8.23254V11.2857H10.8372C11.4548 11.2857 11.9534 11.86 11.9534 12.5714C11.9534 13.2829 11.4548 13.8571 10.8372 13.8571Z" fill="#453532"/>
</svg>
