<svg width="20" height="20" viewBox="0 0 20 20" fill="none" xmlns="http://www.w3.org/2000/svg">
<path d="M13.9343 7.94118H12.5714V3.82353C12.5714 3.37059 12.1857 3 11.7143 3H8.28571C7.81429 3 7.42857 3.37059 7.42857 3.82353V7.94118H6.06571C5.30286 7.94118 4.91714 8.83059 5.45714 9.34941L9.39143 13.1294C9.72571 13.4506 10.2657 13.4506 10.6 13.1294L14.5343 9.34941C15.0743 8.83059 14.6971 7.94118 13.9343 7.94118ZM4 16.1765C4 16.6294 4.38571 17 4.85714 17H15.1429C15.6143 17 16 16.6294 16 16.1765C16 15.7235 15.6143 15.3529 15.1429 15.3529H4.85714C4.38571 15.3529 4 15.7235 4 16.1765Z" fill="#453532"/>
</svg>
