<svg width="20" height="20" viewBox="0 0 20 20" fill="none" xmlns="http://www.w3.org/2000/svg">
<path d="M9.5 6.5H10.5V15.5H9.5V6.5Z" fill="#453532"/>
<path d="M11 5.41465C11 5.96693 10.5523 6.41465 10 6.41465C9.44772 6.41465 9 5.96693 9 5.41465C9 4.86236 9.44772 4.41465 10 4.41465C10.5523 4.41465 11 4.86236 11 5.41465Z" stroke="#453532"/>
<path d="M7 15.5H13C14.2095 15.5 15.2184 16.3589 15.45 17.5H4.55001C4.78164 16.3589 5.79052 15.5 7 15.5Z" stroke="#453532"/>
<mask id="path-4-inside-1_4_316" fill="white">
<path d="M7 10.6923C7 11.9668 5.88071 13 4.5 13C3.11929 13 2 11.9668 2 10.6923L4.5 7L7 10.6923Z"/>
</mask>
<path d="M7 10.6923H8V10.3856L7.82805 10.1317L7 10.6923ZM2 10.6923L1.17195 10.1317L1 10.3856V10.6923H2ZM4.5 7L5.32805 6.43934L4.5 5.21638L3.67195 6.43934L4.5 7ZM6 10.6923C6 11.3407 5.4053 12 4.5 12V14C6.35613 14 8 12.593 8 10.6923H6ZM4.5 12C3.5947 12 3 11.3407 3 10.6923H1C1 12.593 2.64387 14 4.5 14V12ZM2.82805 11.253L5.32805 7.56066L3.67195 6.43934L1.17195 10.1317L2.82805 11.253ZM3.67195 7.56066L6.17195 11.253L7.82805 10.1317L5.32805 6.43934L3.67195 7.56066Z" fill="#453532" mask="url(#path-4-inside-1_4_316)"/>
<mask id="path-6-inside-2_4_316" fill="white">
<path d="M18 7.69231C18 8.96681 16.8807 10 15.5 10C14.1193 10 13 8.96681 13 7.69231L15.5 4L18 7.69231Z"/>
</mask>
<path d="M18 7.69231H19V7.38561L18.828 7.13165L18 7.69231ZM13 7.69231L12.172 7.13165L12 7.38561V7.69231H13ZM15.5 4L16.328 3.43934L15.5 2.21638L14.672 3.43934L15.5 4ZM17 7.69231C17 8.34067 16.4053 9 15.5 9V11C17.3561 11 19 9.59295 19 7.69231H17ZM15.5 9C14.5947 9 14 8.34067 14 7.69231H12C12 9.59295 13.6439 11 15.5 11V9ZM13.828 8.25296L16.328 4.56066L14.672 3.43934L12.172 7.13165L13.828 8.25296ZM14.672 4.56066L17.172 8.25296L18.828 7.13165L16.328 3.43934L14.672 4.56066Z" fill="#453532" mask="url(#path-6-inside-2_4_316)"/>
<rect x="3" y="11" width="3" height="1" fill="#453532"/>
<rect x="14" y="8" width="3" height="1" fill="#453532"/>
<path d="M10.9999 4.5L16.0403 3.13111C16.3066 3.05878 16.581 3.2166 16.6525 3.4832V3.4832C16.7239 3.74961 16.5654 4.02337 16.2988 4.0941L11 5.50006L10.9999 4.5Z" fill="#453532"/>
<path d="M3.12873 7.10377C3.05759 6.83827 3.21475 6.56529 3.48008 6.4935L8.99998 5.00003L9 6L3.74329 7.4552C3.47638 7.52909 3.20041 7.37127 3.12873 7.10377V7.10377Z" fill="#453532"/>
</svg>
