<svg width="20" height="20" viewBox="0 0 20 20" fill="none" xmlns="http://www.w3.org/2000/svg">
<path d="M5 10.9511L5.00001 8.12493C5.00001 7.93375 5.10903 7.7593 5.28087 7.67551L9.78075 5.48135C9.91906 5.41391 10.0807 5.41391 10.219 5.48135L14.7191 7.67557C14.8909 7.75936 14.9999 7.93381 14.9999 8.12499L15 10.9511C15 11.122 14.9126 11.2811 14.7684 11.3729L10.2683 14.2365C10.1045 14.3407 9.89524 14.3407 9.73146 14.2365L5.23156 11.3729C5.08734 11.2811 5 11.122 5 10.9511Z" stroke="#453532"/>
<path d="M7.00002 4L6.6464 3.64651L7.00002 4ZM5.98963 7.40194C5.9669 7.28831 5.97047 7.0972 6.02689 6.83104C6.08163 6.57275 6.17895 6.27706 6.31096 5.97099C6.57756 5.35283 6.96275 4.74454 7.35365 4.35349L6.6464 3.64651C6.14305 4.15006 5.69456 4.8751 5.39272 5.57496C5.2405 5.9279 5.1199 6.28739 5.04862 6.62369C4.97901 6.95212 4.94844 7.29502 5.00905 7.59806L5.98963 7.40194ZM7.35365 4.35349C7.56296 4.14409 7.83714 3.94921 8.15367 3.75325C8.49021 3.5449 8.78315 3.38811 9.1321 3.17875C9.44871 2.98881 9.77571 2.77506 10.0254 2.52545C10.2788 2.27204 10.5 1.93354 10.5 1.5H9.5C9.5 1.56646 9.47116 1.66546 9.3183 1.8183C9.16163 1.97494 8.92607 2.13619 8.61763 2.32125C8.34155 2.48689 7.94696 2.7051 7.62729 2.903C7.28762 3.11329 6.93689 3.35591 6.6464 3.64651L7.35365 4.35349Z" fill="#453532"/>
<path d="M12.9997 4L13.3533 3.64651L12.9997 4ZM14.0094 7.40194C14.0321 7.28826 14.0286 7.0971 13.9722 6.83094C13.9175 6.57264 13.8203 6.27696 13.6883 5.97089C13.4219 5.35274 13.0369 4.74449 12.646 4.35349L13.3533 3.64651C13.8567 4.15011 14.305 4.87519 14.6067 5.57506C14.7588 5.928 14.8793 6.2875 14.9505 6.62379C15.0201 6.95222 15.0506 7.29508 14.99 7.59806L14.0094 7.40194ZM12.646 4.35349C12.4367 4.14408 12.1625 3.9492 11.846 3.75324C11.5095 3.54487 11.2167 3.38812 10.8677 3.17874C10.5511 2.98879 10.2242 2.77504 9.97457 2.52543C9.72115 2.27201 9.5 1.93351 9.5 1.5H10.5C10.5 1.56649 10.5289 1.66549 10.6817 1.81832C10.8383 1.97496 11.0738 2.13621 11.3822 2.32126C11.6582 2.48688 12.0528 2.70513 12.3724 2.90301C12.7121 3.1133 13.0628 3.35592 13.3533 3.64651L12.646 4.35349Z" fill="#453532"/>
<path d="M7 12.5L6.59377 14.1249C6.53343 14.3663 6.38531 14.5765 6.17832 14.7145L4.23642 16.0091C3.46547 16.523 3.74767 17.7185 4.66708 17.8334L9.87597 18.4845C9.95833 18.4948 10.0417 18.4948 10.124 18.4845L15.3329 17.8334C16.2523 17.7185 16.5345 16.523 15.7636 16.0091L13.8217 14.7145C13.6147 14.5765 13.4666 14.3663 13.4062 14.1249L13 12.5" stroke="#453532"/>
<path d="M8.5 8.5C8.5 8.22386 8.72386 8 9 8V8C9.27614 8 9.5 8.22386 9.5 8.5V11.5C9.5 11.7761 9.27614 12 9 12V12C8.72386 12 8.5 11.7761 8.5 11.5V8.5Z" fill="#453532"/>
<path d="M10.5 8.5C10.5 8.22386 10.7239 8 11 8V8C11.2761 8 11.5 8.22386 11.5 8.5V11.5C11.5 11.7761 11.2761 12 11 12V12C10.7239 12 10.5 11.7761 10.5 11.5V8.5Z" fill="#453532"/>
<path d="M6.5 8.5C6.5 8.22386 6.72386 8 7 8V8C7.27614 8 7.5 8.22386 7.5 8.5V10.5C7.5 10.7761 7.27614 11 7 11V11C6.72386 11 6.5 10.7761 6.5 10.5V8.5Z" fill="#453532"/>
<path d="M12.5 8.5C12.5 8.22386 12.7239 8 13 8V8C13.2761 8 13.5 8.22386 13.5 8.5V10.5C13.5 10.7761 13.2761 11 13 11V11C12.7239 11 12.5 10.7761 12.5 10.5V8.5Z" fill="#453532"/>
</svg>
