<svg width="20" height="20" viewBox="0 0 20 20" fill="none" xmlns="http://www.w3.org/2000/svg">
<path d="M13.004 6.34277C13.2046 6.15207 13.5207 6.15608 13.7164 6.35179V6.35179C13.9135 6.5489 13.916 6.86772 13.7219 7.06784L7.48983 13.4949C7.22056 13.7725 6.77605 13.7759 6.50264 13.5023V13.5023C6.22746 13.2269 6.23322 12.7789 6.51538 12.5107L13.004 6.34277Z" fill="#453532"/>
<circle cx="3.5" cy="16.5" r="1" stroke="#453532"/>
<path d="M8.16486 14.3045L5.69581 11.9698L13.2245 3.5L16.5 3.5L16.5 6.77782L8.16486 14.3045Z" stroke="#453532"/>
<path d="M6.5 12L8 13.5L5 16.5L3.5 15L6.5 12Z" fill="#453532"/>
<path d="M4.29289 10.7071C4.68342 10.3166 5.31658 10.3166 5.70711 10.7071L9.29289 14.2929C9.68342 14.6834 9.68342 15.3166 9.29289 15.7071L8.5 16.5L3.5 11.5L4.29289 10.7071Z" fill="#453532"/>
</svg>
